<?xml version="1.0" encoding="UTF-8" standalone="no"?>
<svg
   xmlns:dc="http://purl.org/dc/elements/1.1/"
   xmlns:cc="http://creativecommons.org/ns#"
   xmlns:rdf="http://www.w3.org/1999/02/22-rdf-syntax-ns#"
   xmlns:svg="http://www.w3.org/2000/svg"
   xmlns="http://www.w3.org/2000/svg"
   xmlns:sodipodi="http://sodipodi.sourceforge.net/DTD/sodipodi-0.dtd"
   xmlns:inkscape="http://www.inkscape.org/namespaces/inkscape"
   width="100"
   height="112.8346"
   viewBox="0 0 80 90.267682"
   version="1.1"
   id="svg2"
   inkscape:version="0.48.2 r9819"
   sodipodi:docname="Logo_PDIP1111.svg">
  <metadata
     id="metadata53">
    <rdf:RDF>
      <cc:Work
         rdf:about="">
        <dc:format>image/svg+xml</dc:format>
        <dc:type
           rdf:resource="http://purl.org/dc/dcmitype/StillImage" />
      </cc:Work>
    </rdf:RDF>
  </metadata>
  <defs
     id="defs51" />
  <sodipodi:namedview
     pagecolor="#ffffff"
     bordercolor="#666666"
     borderopacity="1"
     objecttolerance="10"
     gridtolerance="10"
     guidetolerance="10"
     inkscape:pageopacity="0"
     inkscape:pageshadow="2"
     inkscape:window-width="1920"
     inkscape:window-height="1017"
     id="namedview49"
     showgrid="false"
     fit-margin-top="0"
     fit-margin-left="0"
     fit-margin-right="0"
     fit-margin-bottom="0"
     inkscape:zoom="1"
     inkscape:cx="374.50257"
     inkscape:cy="302.68266"
     inkscape:window-x="-8"
     inkscape:window-y="-8"
     inkscape:window-maximized="1"
     inkscape:current-layer="svg2" />
  <g
     id="#1b1211ff"
     transform="matrix(0.13346602,0,0,0.13346602,-5.1248202,-8.2497473)">
    <path
       d="m 179.44,107.27 c 48.27,-30.4 105.46,-46.46 162.5,-45.41 60.01,0.34 119.64,19.82 168.61,54.47 30.63,21.6 57.16,48.99 77.83,80.25 32.55,49.23 50.4,108.29 49.38,167.37 0.3,42.23 -9.33,84.35 -26.72,122.76 -15.88,34.86 -38.55,66.59 -66.27,93.02 -47.79,45.64 -111.05,75.26 -176.99,81.08 l -0.62,0.39 c -39.87,3.53 -80.49,-0.33 -118.7,-12.44 C 211.62,637.24 177.13,618.38 147.38,593.8 117.26,568.8 91.96,537.97 73.56,503.41 49.83,458.96 37.49,408.42 38.45,358.01 38.88,299.3 57.46,240.93 90.68,192.55 c 23.32,-34.11 53.7,-63.4 88.76,-85.28 m 35.36,9.76 c -62.7,31.49 -112.25,88.07 -135.17,154.39 -16.92,48.19 -19.7,101.07 -8.75,150.9 21.07,0.91 42.21,-0.21 63.08,-3.25 24.69,-3.74 49.34,-9.39 72.19,-19.69 9.09,-4.33 18.29,-9.35 24.61,-17.42 -12.35,-3.78 -24.5,-11.28 -30.04,-23.41 9.82,-1.25 20.49,-1.11 29.01,-6.89 3.88,-2.46 5.44,-6.97 6.91,-11.07 -3.54,-3.25 -7.97,-5.24 -11.83,-8.06 -12.75,-8.77 -24.69,-19.51 -31.9,-33.42 -7.99,-14.74 -9.29,-32.56 -5.21,-48.66 4.32,-10.12 9.12,-20.17 15.65,-29.07 8.45,-11.43 21.15,-18.68 33.91,-24.32 19.94,-7.21 42.27,-9.21 62.74,-3.02 -23.33,3.2 -47.5,10.35 -64.54,27.45 -6.8,8.35 -11.89,18.53 -12.71,29.4 -0.46,10.63 4.45,21 11.87,28.43 8.64,6.61 19.47,10.39 30.38,10.37 13.03,0.51 25.88,-2.15 38.55,-4.87 8.21,-1.98 16.76,-1.75 25.12,-1 15.13,2.19 31.12,6.1 42.36,17.17 6.14,5.47 10.16,12.7 14.18,19.75 3.55,-0.25 6.95,-1.42 10.46,-1.92 7.82,-0.98 15.88,0.2 23.09,3.38 13.37,5.78 23.44,17.09 30.84,29.34 9.54,15.99 29.11,25.74 47.63,22.55 11.13,-2.1 20.73,-9.74 26.1,-19.61 2.06,-3.99 4.43,-8 5.2,-12.48 0.78,-10.71 0.32,-21.61 -2.71,-31.97 -3.05,-12.02 -9.63,-22.63 -15.91,-33.15 2.84,1.45 5.57,3.14 8.03,5.19 14.04,11.39 23.94,27.3 29.74,44.3 3.9,12.01 6.5,24.81 4.48,37.45 -2.95,17.4 -11.55,33.77 -24.01,46.24 -9.33,8.73 -21.58,15.5 -34.72,14.8 -1.39,6.99 -0.11,16.22 6.7,20.03 4.91,1.86 10.58,0.66 14.83,-2.29 -0.3,3.92 -2.79,7.07 -4.01,10.7 2.83,1.35 5.73,2.54 8.7,3.59 -11.16,11 -26.89,17.46 -42.6,16.79 -10.41,0.07 -20.99,-4.37 -27.44,-12.69 -7.21,8.99 -12.25,19.52 -16.63,30.12 -8.94,22.62 -13.71,46.68 -16.48,70.78 -2.53,21.25 -3.46,42.66 -3.13,64.05 44.99,-12.47 86.27,-37.39 119.14,-70.46 50.02,-50.22 79.68,-120.51 79.26,-191.52 0.85,-46.43 -11.06,-92.89 -33.3,-133.59 C 561.1,198.66 537.5,170.35 509.24,147.79 469.03,115.35 419.39,94.73 368.01,89.27 315.7,83.48 261.72,93.11 214.8,117.03 m 71.71,265.8 c -2.72,5.8 -4.21,12.35 -2.79,18.71 2.9,10.51 11.56,19.26 22.27,21.7 8.47,2.45 17.35,0.05 25.26,-3.18 -4.41,-2.17 -8.85,-4.29 -13.37,-6.21 -3.5,-1.73 -7.26,1.53 -10.83,0.14 -2.72,-1.09 -4.8,-3.38 -6.31,-5.81 -1.38,-2.69 0.03,-5.6 1.11,-8.1 -5.26,-5.62 -9.7,-11.99 -15.34,-17.25 m 119.04,34.88 c 0.01,1.92 0.47,3.94 -0.11,5.82 -2.84,3.62 -7.67,6.16 -12.34,5 -1.76,-0.63 -3.14,-1.99 -4.62,-3.07 -6.56,-0.08 -13.08,0.66 -19.59,1.28 4.11,3.52 8.57,6.7 13.57,8.84 6.44,2.86 13.76,2.58 20.59,1.66 8.34,-2.14 16.04,-7.38 20.66,-14.7 3.03,-4.89 3.14,-10.82 2.75,-16.38 -6.99,3.8 -13.97,7.63 -20.91,11.55 m -77.91,82.21 c -10.19,2.86 -19.75,9.54 -24.05,19.47 -1.55,5.28 1.79,11.07 6.3,13.78 4.48,1.65 9.26,0.04 13.55,-1.47 11.52,-2.96 23.81,-2.17 35.2,0.97 5.91,3.52 12.23,7.55 19.42,7.12 2.79,0.2 5.12,-2.13 5.67,-4.73 1.37,-4.85 -0.79,-9.7 -2.33,-14.22 -2.74,-7.6 -8.34,-14.7 -16.36,-17.01 -2.79,-0.29 -5.48,0.81 -8.04,1.77 -3.15,1.4 -6.69,1.11 -10.04,1.07 -3.1,-0.24 -6.67,-0.18 -9.02,-2.56 -2.87,-2.54 -6.01,-6.52 -10.3,-4.19 m 5.99,34.95 c -3.99,0.52 -8.33,1.42 -11.14,4.54 -1.35,1.41 -2.75,3.42 -1.72,5.43 1.85,2.85 5.03,4.41 8.11,5.57 8.29,3.2 17.44,2.58 26.08,1.51 3.67,-0.04 6.35,-3.51 6.7,-6.94 -1.05,-2.49 -2.61,-5.12 -5.15,-6.31 -7.06,-3.46 -15.11,-4.51 -22.88,-3.8 z"
       id="path5"
       inkscape:connector-curvature="0"
       style="fill:#1b1211" />
    <path
       d="m 317.37,513.79 c 1.4,-1.14 2.9,-2.15 4.59,-2.81 2.94,4.93 7.61,8.3 11.71,12.19 -0.96,1.32 -2.15,2.42 -3.5,3.34 -7.24,0.78 -12.7,-5.92 -12.8,-12.72 z"
       id="path7"
       inkscape:connector-curvature="0"
       style="fill:#1b1211" />
    <path
       d="m 361.85,520.89 c 2.75,-2.64 2.27,-7.55 5.97,-9.35 3.39,-0.34 6.12,3.42 5.57,6.61 -1.96,5.14 -6.8,9.58 -12.59,9.31 -0.54,-0.4 -1.62,-1.2 -2.16,-1.59 0.54,-1.98 1.8,-3.56 3.21,-4.98 z"
       id="path9"
       inkscape:connector-curvature="0"
       style="fill:#1b1211" />
    <path
       d="m 109.16,673.68 c 7.98,0.35 16.14,-0.86 23.98,1.14 3.86,0.94 6.72,4.42 7.26,8.31 0.7,4.92 0.39,9.92 0.45,14.88 -0.1,3.65 -0.19,8.02 -3.25,10.55 -3.84,3.23 -9.16,2.86 -13.85,2.9 0.06,8.43 0,16.87 0.02,25.3 -4.88,-0.02 -9.76,-0.02 -14.63,0 -0.01,-21.03 -0.06,-42.05 0.02,-63.08 m 14.62,10.62 c -0.02,5.43 0,10.86 -0.02,16.3 0.89,-0.05 2.68,-0.16 3.57,-0.21 1.76,-4.31 1.3,-9.11 0.89,-13.62 -0.48,-2.05 -2.83,-2.01 -4.44,-2.47 z"
       id="path11"
       inkscape:connector-curvature="0"
       style="fill:#1b1211" />
    <path
       d="m 218.19,673.68 c 8.23,0.42 16.72,-1.03 24.73,1.38 5.44,1.66 7.12,7.87 6.92,12.95 -0.25,6.15 1.07,12.76 -1.53,18.56 -3.23,5.21 -10.12,4.92 -15.48,4.9 0.05,8.42 0.02,16.84 0.02,25.27 -4.89,0.01 -9.79,0.02 -14.68,0.01 -0.01,-21.03 -0.06,-42.05 0.02,-63.07 m 14.66,10.61 c 0,5.43 0.02,10.86 -0.01,16.3 1.2,-0.08 2.4,-0.16 3.61,-0.23 1.41,-4.36 1.28,-9.05 0.73,-13.54 -0.23,-2.14 -2.81,-1.96 -4.33,-2.53 z"
       id="path13"
       inkscape:connector-curvature="0"
       style="fill:#1b1211" />
    <path
       d="m 461.59,682.44 c 4.41,-12.79 24.68,-13.38 31.03,-2.01 2.36,5.1 2,10.9 2.16,16.39 -4.89,0 -9.79,-0.02 -14.68,0.02 0.06,-4.51 -0.02,-9.04 -0.71,-13.5 -1.23,0.02 -2.46,0.06 -3.67,0.13 -0.98,12.14 -0.21,24.35 -0.45,36.51 0.08,2.98 -0.64,8.17 3.98,7.59 1.84,-4.82 1.12,-10.03 1.24,-15.06 -0.75,0.01 -2.25,0.02 -3,0.03 0.02,-3.24 0.02,-6.49 0.05,-9.72 5.72,0.02 11.45,0 17.17,0.01 0.07,11.3 0.02,22.61 0.04,33.92 -3.08,-0.01 -6.16,-0.01 -9.23,0.01 -0.45,-1.44 -0.89,-2.88 -1.31,-4.32 -1.77,2.48 -3.99,5 -7.17,5.48 -7.45,1.36 -14.8,-4.63 -15.97,-11.92 -0.88,-6.62 -0.48,-13.33 -0.59,-19.99 0.2,-7.85 -0.57,-15.85 1.11,-23.57 z"
       id="path15"
       inkscape:connector-curvature="0"
       style="fill:#1b1211" />
    <path
       d="m 145.13,673.68 c 8.42,0.17 16.94,-0.5 25.26,1.13 4.73,1 8.19,5.34 8.47,10.11 0.73,8.65 0.31,17.34 0.43,26.02 -0.13,6.29 0.4,12.69 -0.88,18.91 -0.94,4.27 -5.38,6.52 -9.45,6.67 -7.94,0.5 -15.91,0.1 -23.86,0.22 0,-21.02 -0.06,-42.04 0.03,-63.06 m 14.66,10.61 c -0.02,13.88 0.01,27.77 -0.02,41.65 1.26,-0.2 2.52,-0.4 3.78,-0.59 1.44,-4.98 0.86,-10.2 0.97,-15.31 -0.1,-8.12 0.26,-16.25 -0.29,-24.36 -1.47,-0.5 -2.95,-0.98 -4.44,-1.39 z"
       id="path17"
       inkscape:connector-curvature="0"
       style="fill:#1b1211" />
    <path
       d="m 184.73,673.7 c 4.92,0 9.84,0 14.76,-0.01 0.01,21.02 -0.02,42.04 0.01,63.06 -4.93,0 -9.85,-0.01 -14.78,0.01 0.02,-21.02 0,-42.04 0.01,-63.06 z"
       id="path19"
       inkscape:connector-curvature="0"
       style="fill:#1b1211" />
    <path
       d="m 254.16,673.68 c 8.17,0.03 16.33,0.02 24.5,0.01 0.02,4.24 0,8.48 0.02,12.72 -3.3,-0.02 -6.6,-0.02 -9.89,0.03 0.01,3.96 -0.04,7.93 0.11,11.91 3.09,-0.02 6.18,-0.02 9.27,0.02 -0.03,3.96 -0.02,7.94 0,11.92 -3.13,0 -6.26,-0.01 -9.39,0.06 0.03,4.62 0.03,9.24 0.01,13.87 3.65,0 7.3,-0.01 10.96,0 -0.01,4.17 0,8.34 -0.03,12.52 -8.53,0.01 -17.06,0.02 -25.59,0 0.01,-21.02 -0.05,-42.04 0.03,-63.06 z"
       id="path21"
       inkscape:connector-curvature="0"
       style="fill:#1b1211" />
    <path
       d="m 284.16,673.66 c 8.3,0.23 16.72,-0.53 24.91,1.15 4.36,1.29 6.92,5.8 7.41,10.1 0.46,4.7 0.68,9.56 -0.44,14.19 -0.75,3.2 -4.15,4.4 -7.04,4.86 3.67,0.91 7.36,3.57 7.62,7.65 0.44,8.37 0.17,16.76 0.2,25.14 -4.56,0 -9.12,0 -13.68,-0.01 -0.21,-8.64 0.4,-17.31 -0.35,-25.92 0.16,-2.22 -2.54,-2.16 -4,-2.72 -0.05,9.54 0.02,19.09 -0.03,28.64 -4.98,0 -9.95,0.07 -14.92,-0.08 0.24,-20.99 -0.4,-42.02 0.32,-63 m 14.63,10.61 c -0.03,4.77 0,9.53 -0.02,14.3 0.9,-0.1 2.7,-0.3 3.6,-0.41 1.06,-4.1 0.92,-8.37 0.34,-12.52 -1.31,-0.48 -2.62,-0.93 -3.92,-1.37 z"
       id="path23"
       inkscape:connector-curvature="0"
       style="fill:#1b1211" />
    <path
       d="m 325.83,673.71 c 4.92,-0.02 9.84,0 14.77,-0.02 0.06,16.97 0.1,33.95 -0.03,50.92 0.14,4.03 -0.57,9.11 -4.71,10.96 -4.97,1.87 -10.44,0.97 -15.63,1.16 -0.01,-3.62 -0.01,-7.24 0,-10.85 1.34,-0.14 2.71,-0.16 4.04,-0.47 1.74,-1.23 1.47,-3.49 1.56,-5.33 0,-15.46 0,-30.92 0,-46.37 z"
       id="path25"
       inkscape:connector-curvature="0"
       style="fill:#1b1211" />
    <path
       d="m 346.25,721.97 c -0.16,-16.1 -0.16,-32.2 -0.02,-48.3 4.85,0.04 9.7,0.03 14.56,0.02 0.05,14.43 0.02,28.87 0.02,43.3 0.04,3.46 -0.32,7.06 0.94,10.37 0.61,0 1.84,-0.02 2.46,-0.03 1.22,-3.28 0.89,-6.85 0.94,-10.27 -0.01,-14.46 -0.05,-28.92 0.02,-43.37 4.88,0.01 9.76,0.01 14.65,0 -0.01,16.45 0.19,32.91 -0.12,49.37 0.09,5.55 -3.08,11.15 -8.22,13.44 -6.39,2.8 -14.31,1.99 -19.94,-2.14 -3.74,-2.9 -5.4,-7.76 -5.29,-12.39 z"
       id="path27"
       inkscape:connector-curvature="0"
       style="fill:#1b1211" />
    <path
       d="m 382.15,736.72 c 2.75,-20.98 4.96,-42.03 7.64,-63.02 7.11,0 14.22,-0.02 21.34,0.01 2.74,21.02 5.59,42.02 8.41,63.03 -5.05,0.02 -10.1,0 -15.15,0.01 -0.26,-3.77 -0.55,-7.53 -0.73,-11.29 -1.75,0 -3.5,0 -5.24,0 -0.32,3.76 -0.65,7.52 -0.92,11.29 -5.12,-0.01 -10.23,0.02 -15.35,-0.03 m 16.09,-22.39 c 1.68,-0.01 3.37,-0.02 5.07,-0.01 -0.99,-8.81 -1.56,-17.66 -2.28,-26.5 -0.92,8.84 -2.16,17.65 -2.79,26.51 z"
       id="path29"
       inkscape:connector-curvature="0"
       style="fill:#1b1211" />
    <path
       d="m 422.14,673.69 c 4.08,0.01 8.17,0.01 12.25,-0.01 2.64,9.55 5.71,18.97 8.14,28.58 0.31,-9.53 0.11,-19.05 0.16,-28.58 4.05,0.02 8.11,0.03 12.17,0 0.09,21.03 0.15,42.04 0.03,63.07 -4.31,-0.01 -8.61,0.03 -12.92,-0.05 -2.37,-9.51 -5.18,-18.92 -7.42,-28.46 -0.29,9.5 -0.07,19.01 -0.15,28.52 -4.1,-0.02 -8.19,-0.01 -12.29,-0.01 0.14,-21.02 -0.31,-42.04 0.03,-63.06 z"
       id="path31"
       inkscape:connector-curvature="0"
       style="fill:#1b1211" />
    <path
       d="m 497.14,736.73 c 2.43,-21.02 5.04,-42.02 7.46,-63.04 7.09,0.02 14.17,0.02 21.26,-0.01 3.07,20.98 5.64,42.05 8.58,63.06 -5.04,0.02 -10.08,0.01 -15.11,0.02 -0.28,-3.77 -0.6,-7.53 -0.77,-11.3 -1.75,-0.01 -3.5,0 -5.23,0 -0.27,3.76 -0.63,7.52 -0.92,11.29 -5.09,0 -10.18,0.01 -15.27,-0.02 m 16.01,-22.42 c 1.62,-0.01 3.25,0 4.88,0.01 -0.64,-8.65 -1.44,-17.28 -2.04,-25.92 -1.37,8.58 -2.07,17.26 -2.84,25.91 z"
       id="path33"
       inkscape:connector-curvature="0"
       style="fill:#1b1211" />
    <path
       d="m 537.07,673.68 c 4.05,0.02 8.11,0.02 12.18,0.01 2.76,9.53 5.62,19.03 8.28,28.59 -0.05,-9.53 -0.03,-19.06 -0.01,-28.59 4.1,0.01 8.21,0.01 12.31,-0.01 0.08,21.02 0.03,42.05 0.04,63.07 -4.32,0 -8.63,-0.01 -12.94,0 -2.49,-9.54 -5.22,-19.03 -7.55,-28.61 -0.15,9.54 -0.07,19.07 -0.1,28.61 -4.15,-0.01 -8.3,0.04 -12.45,-0.08 0.2,-20.99 -0.27,-42 0.24,-62.99 z"
       id="path35"
       inkscape:connector-curvature="0"
       style="fill:#1b1211" />
  </g>
  <g
     id="#ffffffff"
     transform="matrix(0.13346602,0,0,0.13346602,-5.1248202,-8.2497473)">
    <path
       d="m 327.64,499.92 c 4.29,-2.33 7.43,1.65 10.3,4.19 2.35,2.38 5.92,2.32 9.02,2.56 3.35,0.04 6.89,0.33 10.04,-1.07 2.56,-0.96 5.25,-2.06 8.04,-1.77 8.02,2.31 13.62,9.41 16.36,17.01 1.54,4.52 3.7,9.37 2.33,14.22 -0.55,2.6 -2.88,4.93 -5.67,4.73 -7.19,0.43 -13.51,-3.6 -19.42,-7.12 -11.39,-3.14 -23.68,-3.93 -35.2,-0.97 -4.29,1.51 -9.07,3.12 -13.55,1.47 -4.51,-2.71 -7.85,-8.5 -6.3,-13.78 4.3,-9.93 13.86,-16.61 24.05,-19.47 m -10.27,13.87 c 0.1,6.8 5.56,13.5 12.8,12.72 1.35,-0.92 2.54,-2.02 3.5,-3.34 -4.1,-3.89 -8.77,-7.26 -11.71,-12.19 -1.69,0.66 -3.19,1.67 -4.59,2.81 m 44.48,7.1 c -1.41,1.42 -2.67,3 -3.21,4.98 0.54,0.39 1.62,1.19 2.16,1.59 5.79,0.27 10.63,-4.17 12.59,-9.31 0.55,-3.19 -2.18,-6.95 -5.57,-6.61 -3.7,1.8 -3.22,6.71 -5.97,9.35 z"
       id="path38"
       inkscape:connector-curvature="0"
       style="fill:#ffffff" />
    <path
       d="m 333.63,534.87 c 7.77,-0.71 15.82,0.34 22.88,3.8 2.54,1.19 4.1,3.82 5.15,6.31 -0.35,3.43 -3.03,6.9 -6.7,6.94 -8.64,1.07 -17.79,1.69 -26.08,-1.51 -3.08,-1.16 -6.26,-2.72 -8.11,-5.57 -1.03,-2.01 0.37,-4.02 1.72,-5.43 2.81,-3.12 7.15,-4.02 11.14,-4.54 z"
       id="path40"
       inkscape:connector-curvature="0"
       style="fill:#ffffff" />
  </g>
  <g
     id="#da251cff"
     transform="matrix(0.13346602,0,0,0.13346602,-5.1248202,-8.2497473)">
    <path
       d="m 214.8,117.03 c 46.92,-23.92 100.9,-33.55 153.21,-27.76 51.38,5.46 101.02,26.08 141.23,58.52 28.26,22.56 51.86,50.87 69.23,82.58 22.24,40.7 34.15,87.16 33.3,133.59 0.42,71.01 -29.24,141.3 -79.26,191.52 -32.87,33.07 -74.15,57.99 -119.14,70.46 -0.33,-21.39 0.6,-42.8 3.13,-64.05 2.77,-24.1 7.54,-48.16 16.48,-70.78 4.38,-10.6 9.42,-21.13 16.63,-30.12 6.45,8.32 17.03,12.76 27.44,12.69 15.71,0.67 31.44,-5.79 42.6,-16.79 -2.97,-1.05 -5.87,-2.24 -8.7,-3.59 1.22,-3.63 3.71,-6.78 4.01,-10.7 -4.25,2.95 -9.92,4.15 -14.83,2.29 -6.81,-3.81 -8.09,-13.04 -6.7,-20.03 13.14,0.7 25.39,-6.07 34.72,-14.8 12.46,-12.47 21.06,-28.84 24.01,-46.24 2.02,-12.64 -0.58,-25.44 -4.48,-37.45 -5.8,-17 -15.7,-32.91 -29.74,-44.3 -2.46,-2.05 -5.19,-3.74 -8.03,-5.19 6.28,10.52 12.86,21.13 15.91,33.15 3.03,10.36 3.49,21.26 2.71,31.97 -0.77,4.48 -3.14,8.49 -5.2,12.48 -5.37,9.87 -14.97,17.51 -26.1,19.61 -18.52,3.19 -38.09,-6.56 -47.63,-22.55 -7.4,-12.25 -17.47,-23.56 -30.84,-29.34 -7.21,-3.18 -15.27,-4.36 -23.09,-3.38 -3.51,0.5 -6.91,1.67 -10.46,1.92 -4.02,-7.05 -8.04,-14.28 -14.18,-19.75 -11.24,-11.07 -27.23,-14.98 -42.36,-17.17 -8.36,-0.75 -16.91,-0.98 -25.12,1 -12.67,2.72 -25.52,5.38 -38.55,4.87 -10.91,0.02 -21.74,-3.76 -30.38,-10.37 -7.42,-7.43 -12.33,-17.8 -11.87,-28.43 0.82,-10.87 5.91,-21.05 12.71,-29.4 17.04,-17.1 41.21,-24.25 64.54,-27.45 -20.47,-6.19 -42.8,-4.19 -62.74,3.02 -12.76,5.64 -25.46,12.89 -33.91,24.32 -6.53,8.9 -11.33,18.95 -15.65,29.07 -4.08,16.1 -2.78,33.92 5.21,48.66 7.21,13.91 19.15,24.65 31.9,33.42 3.86,2.82 8.29,4.81 11.83,8.06 -1.47,4.1 -3.03,8.61 -6.91,11.07 -8.52,5.78 -19.19,5.64 -29.01,6.89 5.54,12.13 17.69,19.63 30.04,23.41 -6.32,8.07 -15.52,13.09 -24.61,17.42 -22.85,10.3 -47.5,15.95 -72.19,19.69 -20.87,3.04 -42.01,4.16 -63.08,3.25 C 59.93,372.49 62.71,319.61 79.63,271.42 102.55,205.1 152.1,148.52 214.8,117.03 z"
       id="path43"
       inkscape:connector-curvature="0"
       style="fill:#da251c" />
    <path
       d="m 286.51,382.83 c 5.64,5.26 10.08,11.63 15.34,17.25 -1.08,2.5 -2.49,5.41 -1.11,8.1 1.51,2.43 3.59,4.72 6.31,5.81 3.57,1.39 7.33,-1.87 10.83,-0.14 4.52,1.92 8.96,4.04 13.37,6.21 -7.91,3.23 -16.79,5.63 -25.26,3.18 -10.71,-2.44 -19.37,-11.19 -22.27,-21.7 -1.42,-6.36 0.07,-12.91 2.79,-18.71 z"
       id="path45"
       inkscape:connector-curvature="0"
       style="fill:#da251c" />
    <path
       d="m 405.55,417.71 c 6.94,-3.92 13.92,-7.75 20.91,-11.55 0.39,5.56 0.28,11.49 -2.75,16.38 -4.62,7.32 -12.32,12.56 -20.66,14.7 -6.83,0.92 -14.15,1.2 -20.59,-1.66 -5,-2.14 -9.46,-5.32 -13.57,-8.84 6.51,-0.62 13.03,-1.36 19.59,-1.28 1.48,1.08 2.86,2.44 4.62,3.07 4.67,1.16 9.5,-1.38 12.34,-5 0.58,-1.88 0.12,-3.9 0.11,-5.82 z"
       id="path47"
       inkscape:connector-curvature="0"
       style="fill:#da251c" />
  </g>
</svg>
